{
    "asset" : {
        "generator" : "Khronos glTF Blender I/O v1.1.46",
        "version" : "2.0"
    },
    "extensionsUsed" : [
        "KHR_lights_punctual"
    ],
    "extensionsRequired" : [
        "KHR_lights_punctual"
    ],
    "extensions" : {
        "KHR_lights_punctual" : {
            "lights" : [
                {
                    "color" : [
                        1,
                        1,
                        1
                    ],
                    "intensity" : 0.09999999403953552,
                    "type" : "point",
                    "name" : "Point"
                },
                {
                    "color" : [
                        1,
                        1,
                        1
                    ],
                    "intensity" : 0.5600000023841858,
                    "type" : "directional",
                    "name" : "Sun"
                }
            ]
        }
    },
    "scene" : 0,
    "scenes" : [
        {
            "extras" : {
                "glTF2ExportSettings" : {
                    "export_animations" : 0,
                    "export_apply" : 1,
                    "export_cameras" : 1,
                    "export_copyright" : "",
                    "export_extras" : 1,
                    "export_format" : "GLTF_EMBEDDED",
                    "export_image_format" : "NAME",
                    "export_lights" : 1,
                    "export_morph" : 0,
                    "export_skins" : 0,
                    "export_tangents" : 1,
                    "export_texture_dir" : "HouseTexture"
                }
            },
            "name" : "Scene",
            "nodes" : [
                0,
                1,
                3,
                5
            ]
        }
    ],
    "nodes" : [
        {
            "mesh" : 0,
            "name" : "Plane",
            "rotation" : [
                0,
                1,
                0,
                -4.371138828673793e-08
            ],
            "scale" : [
                1.2140605449676514,
                1.089530348777771,
                1.931331992149353
            ],
            "translation" : [
                0,
                1.9460495710372925,
                1.5818095207214355
            ]
        },
        {
            "mesh" : 1,
            "name" : "Plane.001",
            "rotation" : [
                0,
                0.7071067690849304,
                -0.7071067690849304,
                -3.0908619663705394e-08
            ],
            "scale" : [
                0.07044829428195953,
                0.10982734709978104,
                0.1677073985338211
            ],
            "translation" : [
                0,
                1.9460495710372925,
                1.9721291065216064
            ]
        },
        {
            "extensions" : {
                "KHR_lights_punctual" : {
                    "light" : 0
                }
            },
            "name" : "Point_Orientation",
            "rotation" : [
                -0.7071067690849304,
                0,
                0,
                0.7071067690849304
            ]
        },
        {
            "children" : [
                2
            ],
            "name" : "Point",
            "rotation" : [
                0,
                1,
                0,
                -4.371138828673793e-08
            ],
            "scale" : [
                12.043904304504395,
                12.043904304504395,
                12.043904304504395
            ],
            "translation" : [
                0,
                2.842385768890381,
                1.9206175804138184
            ]
        },
        {
            "extensions" : {
                "KHR_lights_punctual" : {
                    "light" : 1
                }
            },
            "name" : "Sun_Orientation",
            "rotation" : [
                -0.7071067690849304,
                0,
                0,
                0.7071067690849304
            ]
        },
        {
            "children" : [
                4
            ],
            "name" : "Sun",
            "rotation" : [
                -0.026921654120087624,
                -0.0008729180553928018,
                -0.032395586371421814,
                0.9991121292114258
            ],
            "translation" : [
                0,
                6.8407368659973145,
                -12.146008491516113
            ]
        }
    ],
    "materials" : [
        {
            "doubleSided" : true,
            "emissiveFactor" : [
                0,
                0,
                0
            ],
            "name" : "Building",
            "pbrMetallicRoughness" : {
                "baseColorFactor" : [
                    0.10603854805231094,
                    0.8000000715255737,
                    0.19568683207035065,
                    1
                ],
                "metallicFactor" : 0,
                "roughnessFactor" : 0.5
            }
        },
        {
            "doubleSided" : true,
            "emissiveFactor" : [
                0,
                0,
                0
            ],
            "name" : "Ground",
            "pbrMetallicRoughness" : {
                "baseColorFactor" : [
                    0.8000000715255737,
                    0.18472953140735626,
                    0.07517059892416,
                    1
                ],
                "metallicFactor" : 0,
                "roughnessFactor" : 0.5
            }
        },
        {
            "doubleSided" : true,
            "emissiveFactor" : [
                0,
                0,
                0
            ],
            "name" : "HouseGround",
            "pbrMetallicRoughness" : {
                "baseColorTexture" : {
                    "index" : 0,
                    "texCoord" : 0
                },
                "metallicFactor" : 0,
                "roughnessFactor" : 0.5
            }
        },
        {
            "doubleSided" : true,
            "emissiveFactor" : [
                0,
                0,
                0
            ],
            "name" : "NameMark",
            "pbrMetallicRoughness" : {
                "baseColorTexture" : {
                    "index" : 1,
                    "texCoord" : 0
                },
                "metallicFactor" : 0,
                "roughnessFactor" : 0.5
            }
        }
    ],
    "meshes" : [
        {
            "name" : "Plane",
            "primitives" : [
                {
                    "attributes" : {
                        "POSITION" : 0,
                        "NORMAL" : 1,
                        "TEXCOORD_0" : 2
                    },
                    "indices" : 3,
                    "material" : 0
                },
                {
                    "attributes" : {
                        "POSITION" : 4,
                        "NORMAL" : 5,
                        "TEXCOORD_0" : 6
                    },
                    "indices" : 7,
                    "material" : 1
                },
                {
                    "attributes" : {
                        "POSITION" : 8,
                        "NORMAL" : 9,
                        "TEXCOORD_0" : 10
                    },
                    "indices" : 11,
                    "material" : 2
                }
            ]
        },
        {
            "name" : "Plane.001",
            "primitives" : [
                {
                    "attributes" : {
                        "POSITION" : 12,
                        "NORMAL" : 13,
                        "TANGENT" : 14,
                        "TEXCOORD_0" : 15
                    },
                    "indices" : 16,
                    "material" : 3
                }
            ]
        }
    ],
    "textures" : [
        {
            "source" : 0
        },
        {
            "source" : 1
        }
    ],
    "images" : [
        {
            "bufferView" : 12,
            "mimeType" : "image/png",
            "name" : "HouseGround"
        },
        {
            "bufferView" : 18,
            "mimeType" : "image/png",
            "name" : "HouseMarkName"
        }
    ],
    "accessors" : [
        {
            "bufferView" : 0,
            "componentType" : 5126,
            "count" : 88,
            "max" : [
                5.693612575531006,
                3.3910276889801025,
                5.693612575531006
            ],
            "min" : [
                -5.693612575531006,
                -1.784510850906372,
                -5.693612575531006
            ],
            "type" : "VEC3"
        },
        {
            "bufferView" : 1,
            "componentType" : 5126,
            "count" : 88,
            "type" : "VEC3"
        },
        {
            "bufferView" : 2,
            "componentType" : 5126,
            "count" : 88,
            "type" : "VEC2"
        },
        {
            "bufferView" : 3,
            "componentType" : 5123,
            "count" : 162,
            "type" : "SCALAR"
        },
        {
            "bufferView" : 4,
            "componentType" : 5126,
            "count" : 22,
            "max" : [
                5.693612575531006,
                -1.6535694599151611,
                5.693612575531006
            ],
            "min" : [
                -5.693612575531006,
                -1.784510850906372,
                -5.693612575531006
            ],
            "type" : "VEC3"
        },
        {
            "bufferView" : 5,
            "componentType" : 5126,
            "count" : 22,
            "type" : "VEC3"
        },
        {
            "bufferView" : 6,
            "componentType" : 5126,
            "count" : 22,
            "type" : "VEC2"
        },
        {
            "bufferView" : 7,
            "componentType" : 5123,
            "count" : 36,
            "type" : "SCALAR"
        },
        {
            "bufferView" : 8,
            "componentType" : 5126,
            "count" : 8,
            "max" : [
                5.363985061645508,
                -1.6535694599151611,
                5.273921966552734
            ],
            "min" : [
                -5.363985061645508,
                -1.6535694599151611,
                -5.453788757324219
            ],
            "type" : "VEC3"
        },
        {
            "bufferView" : 9,
            "componentType" : 5126,
            "count" : 8,
            "type" : "VEC3"
        },
        {
            "bufferView" : 10,
            "componentType" : 5126,
            "count" : 8,
            "type" : "VEC2"
        },
        {
            "bufferView" : 11,
            "componentType" : 5123,
            "count" : 18,
            "type" : "SCALAR"
        },
        {
            "bufferView" : 13,
            "componentType" : 5126,
            "count" : 4,
            "max" : [
                32.24403381347656,
                -98.17703247070312,
                -8.356239318847656
            ],
            "min" : [
                -32.24403381347656,
                -98.17703247070312,
                -17.708831787109375
            ],
            "type" : "VEC3"
        },
        {
            "bufferView" : 14,
            "componentType" : 5126,
            "count" : 4,
            "type" : "VEC3"
        },
        {
            "bufferView" : 15,
            "componentType" : 5126,
            "count" : 4,
            "type" : "VEC4"
        },
        {
            "bufferView" : 16,
            "componentType" : 5126,
            "count" : 4,
            "type" : "VEC2"
        },
        {
            "bufferView" : 17,
            "componentType" : 5123,
            "count" : 6,
            "type" : "SCALAR"
        }
    ],
    "bufferViews" : [
        {
            "buffer" : 0,
            "byteLength" : 1056,
            "byteOffset" : 0
        },
        {
            "buffer" : 0,
            "byteLength" : 1056,
            "byteOffset" : 1056
        },
        {
            "buffer" : 0,
            "byteLength" : 704,
            "byteOffset" : 2112
        },
        {
            "buffer" : 0,
            "byteLength" : 324,
            "byteOffset" : 2816
        },
        {
            "buffer" : 0,
            "byteLength" : 264,
            "byteOffset" : 3140
        },
        {
            "buffer" : 0,
            "byteLength" : 264,
            "byteOffset" : 3404
        },
        {
            "buffer" : 0,
            "byteLength" : 176,
            "byteOffset" : 3668
        },
        {
            "buffer" : 0,
            "byteLength" : 72,
            "byteOffset" : 3844
        },
        {
            "buffer" : 0,
            "byteLength" : 96,
            "byteOffset" : 3916
        },
        {
            "buffer" : 0,
            "byteLength" : 96,
            "byteOffset" : 4012
        },
        {
            "buffer" : 0,
            "byteLength" : 64,
            "byteOffset" : 4108
        },
        {
            "buffer" : 0,
            "byteLength" : 36,
            "byteOffset" : 4172
        },
        {
            "buffer" : 0,
            "byteLength" : 130222,
            "byteOffset" : 4208
        },
        {
            "buffer" : 0,
            "byteLength" : 48,
            "byteOffset" : 134432
        },
        {
            "buffer" : 0,
            "byteLength" : 48,
            "byteOffset" : 134480
        },
        {
            "buffer" : 0,
            "byteLength" : 64,
            "byteOffset" : 134528
        },
        {
            "buffer" : 0,
            "byteLength" : 32,
            "byteOffset" : 134592
        },
        {
            "buffer" : 0,
            "byteLength" : 12,
            "byteOffset" : 134624
        },
        {
            "buffer" : 0,
            "byteLength" : 327161,
            "byteOffset" : 134636
        }
    ],
    "buffers" : [
        {
            "byteLength" : 461800,
            "uri" : "data:application/octet-stream;base64,"
        }
    ]
}
